<svg width="14" height="14" viewBox="0 0 14 14" fill="none" xmlns="http://www.w3.org/2000/svg">
<path d="M5.81935 3.68266C5.81935 3.56684 5.78802 3.45868 5.74263 3.35596C5.21101 3.42021 4.6828 3.51931 4.18613 3.64995C4.18571 3.66114 4.18262 3.67148 4.18262 3.68266C4.18262 4.13383 4.54982 4.50103 5.00098 4.50103C5.45204 4.50103 5.81935 4.13383 5.81935 3.68266Z" fill="black"/>
<path fill-rule="evenodd" clip-rule="evenodd" d="M12.3664 4.42624C12.0471 4.42624 11.7399 4.35389 11.4533 4.21078C11.2275 4.09804 10.9738 3.99575 10.7081 3.90006C10.6048 4.47313 10.1049 4.91012 9.50257 4.91012C8.82561 4.91012 8.27503 4.35943 8.27503 3.68257V3.34564C7.86179 3.29854 7.44792 3.27222 7.04705 3.27222C6.89446 3.27222 6.73899 3.27861 6.58342 3.28564C6.61602 3.41532 6.63829 3.54778 6.63829 3.68257C6.63829 4.58533 5.90422 5.3193 5.00156 5.3193C4.17318 5.3193 3.4943 4.69914 3.38678 3.89984C3.12156 3.99543 2.86838 4.09751 2.64311 4.21003C2.36819 4.34749 2.05768 4.4207 1.74525 4.4207C1.73505 4.4207 1.72522 4.41867 1.71538 4.41664C1.7062 4.41475 1.69701 4.41286 1.6875 4.4126L2.54646 6.00703V10.2295C2.54646 10.9064 3.09705 11.457 3.77401 11.457C4.35539 11.457 4.84322 11.0511 4.96991 10.5076L6.68699 13.7513C6.75849 13.884 6.8968 13.9667 7.04748 13.9667C7.19804 13.9667 7.33636 13.884 7.40786 13.7513L8.63711 11.4137C8.52022 11.4402 8.39981 11.457 8.27503 11.457C7.37099 11.457 6.63829 10.7242 6.63829 9.82032C6.63829 8.91638 7.37099 8.18358 8.27503 8.18358C8.97682 8.18358 9.57056 8.62751 9.80317 9.2481L12.4022 4.42123C12.3963 4.42134 12.3905 4.42253 12.3848 4.42373C12.3788 4.42498 12.3728 4.42624 12.3664 4.42624ZM6.22911 7.7744C5.55215 7.7744 5.00156 7.22371 5.00156 6.54685C5.00156 6.32074 5.18452 6.13767 5.41075 6.13767C5.63686 6.13767 5.81993 6.32074 5.81993 6.54685C5.81993 6.77265 6.00331 6.95604 6.22911 6.95604C6.4548 6.95604 6.63829 6.77265 6.63829 6.54685C6.63829 6.32074 6.82125 6.13767 7.04748 6.13767C7.27359 6.13767 7.45666 6.32074 7.45666 6.54685C7.45666 7.22371 6.90597 7.7744 6.22911 7.7744ZM8.27503 6.13767C8.27503 6.36368 8.4582 6.54685 8.68421 6.54685C8.91011 6.54685 9.09339 6.36368 9.09339 6.13767C9.09339 5.91166 8.91011 5.72849 8.68421 5.72849C8.4582 5.72849 8.27503 5.91166 8.27503 6.13767Z" fill="black"/>
<path d="M8.27442 9.00195C7.82325 9.00195 7.45605 9.36915 7.45605 9.82032C7.45605 10.2715 7.82325 10.6387 8.27442 10.6387C8.72548 10.6387 9.09279 10.2715 9.09279 9.82032C9.09279 9.36915 8.72548 9.00195 8.27442 9.00195Z" fill="black"/>
<path d="M13.4645 2.92896C13.7669 2.32403 13.5207 1.58516 12.9154 1.28189C11.3342 0.491126 9.08611 0 7.04819 0C5.0091 0 2.76019 0.491126 1.17897 1.28189C0.57319 1.58516 0.326615 2.32361 0.62956 2.92939C0.925578 3.51876 1.68363 3.77493 2.27663 3.47806C3.52133 2.85586 5.39345 2.45393 7.04659 2.45393C7.71194 2.45393 8.41171 2.52159 9.09293 2.63998V3.68265C9.09293 3.90866 9.27611 4.09183 9.50212 4.09183C9.72802 4.09183 9.9113 3.90866 9.9113 3.68265V2.81164C10.6176 2.98384 11.2779 3.20868 11.8173 3.47848C12.4197 3.77823 13.1566 3.54338 13.4645 2.92896Z" fill="black"/>
</svg>
