<svg width="83" height="21" viewBox="0 0 83 21" fill="none" xmlns="http://www.w3.org/2000/svg">
<path d="M6.81935 6.68266C6.81935 6.56684 6.78802 6.45868 6.74263 6.35596C6.21101 6.42021 5.6828 6.51931 5.18613 6.64995C5.18571 6.66114 5.18262 6.67148 5.18262 6.68266C5.18262 7.13383 5.54982 7.50103 6.00098 7.50103C6.45204 7.50103 6.81935 7.13383 6.81935 6.68266Z" fill="black"/>
<path fill-rule="evenodd" clip-rule="evenodd" d="M13.3664 7.42624C13.0471 7.42624 12.7399 7.35389 12.4533 7.21078C12.2275 7.09804 11.9738 6.99575 11.7081 6.90006C11.6048 7.47313 11.1049 7.91012 10.5026 7.91012C9.82561 7.91012 9.27503 7.35943 9.27503 6.68257V6.34564C8.86179 6.29854 8.44792 6.27222 8.04705 6.27222C7.89446 6.27222 7.73899 6.27861 7.58342 6.28564C7.61602 6.41532 7.63829 6.54778 7.63829 6.68257C7.63829 7.58533 6.90422 8.3193 6.00156 8.3193C5.17318 8.3193 4.4943 7.69914 4.38678 6.89984C4.12156 6.99543 3.86838 7.09751 3.64311 7.21003C3.36819 7.34749 3.05768 7.4207 2.74525 7.4207C2.73505 7.4207 2.72522 7.41867 2.71538 7.41664C2.7062 7.41475 2.69701 7.41286 2.6875 7.4126L3.54646 9.00703V13.2295C3.54646 13.9064 4.09705 14.457 4.77401 14.457C5.35539 14.457 5.84322 14.0511 5.96991 13.5076L7.68699 16.7513C7.75849 16.884 7.8968 16.9667 8.04748 16.9667C8.19804 16.9667 8.33636 16.884 8.40786 16.7513L9.63711 14.4137C9.52022 14.4402 9.39981 14.457 9.27503 14.457C8.37099 14.457 7.63829 13.7242 7.63829 12.8203C7.63829 11.9164 8.37099 11.1836 9.27503 11.1836C9.97682 11.1836 10.5706 11.6275 10.8032 12.2481L13.4022 7.42123C13.3963 7.42134 13.3905 7.42253 13.3848 7.42373C13.3788 7.42498 13.3728 7.42624 13.3664 7.42624ZM7.22911 10.7744C6.55215 10.7744 6.00156 10.2237 6.00156 9.54685C6.00156 9.32074 6.18452 9.13767 6.41075 9.13767C6.63686 9.13767 6.81993 9.32074 6.81993 9.54685C6.81993 9.77265 7.00331 9.95604 7.22911 9.95604C7.4548 9.95604 7.63829 9.77265 7.63829 9.54685C7.63829 9.32074 7.82125 9.13767 8.04748 9.13767C8.27359 9.13767 8.45666 9.32074 8.45666 9.54685C8.45666 10.2237 7.90597 10.7744 7.22911 10.7744ZM9.27503 9.13767C9.27503 9.36368 9.4582 9.54685 9.68421 9.54685C9.91011 9.54685 10.0934 9.36368 10.0934 9.13767C10.0934 8.91166 9.91011 8.72849 9.68421 8.72849C9.4582 8.72849 9.27503 8.91166 9.27503 9.13767Z" fill="black"/>
<path d="M9.27442 12.002C8.82325 12.002 8.45605 12.3692 8.45605 12.8203C8.45605 13.2715 8.82325 13.6387 9.27442 13.6387C9.72548 13.6387 10.0928 13.2715 10.0928 12.8203C10.0928 12.3692 9.72548 12.002 9.27442 12.002Z" fill="black"/>
<path d="M14.4645 5.92896C14.7669 5.32403 14.5207 4.58516 13.9154 4.28189C12.3342 3.49113 10.0861 3 8.04819 3C6.0091 3 3.76019 3.49113 2.17897 4.28189C1.57319 4.58516 1.32661 5.32361 1.62956 5.92939C1.92558 6.51876 2.68363 6.77493 3.27663 6.47806C4.52133 5.85586 6.39345 5.45393 8.04659 5.45393C8.71194 5.45393 9.41171 5.52159 10.0929 5.63998V6.68265C10.0929 6.90866 10.2761 7.09183 10.5021 7.09183C10.728 7.09183 10.9113 6.90866 10.9113 6.68265V5.81164C11.6176 5.98384 12.2779 6.20868 12.8173 6.47848C13.4197 6.77823 14.1566 6.54338 14.4645 5.92896Z" fill="black"/>
<path d="M32.6445 10.6045H28.4678V15H27.1553V5.04688H33.3213V6.12695H28.4678V9.53125H32.6445V10.6045ZM39.2275 12.4023H35.0576L34.1211 15H32.7676L36.5684 5.04688H37.7168L41.5244 15H40.1777L39.2275 12.4023ZM35.4541 11.3223H38.8379L37.1426 6.66699L35.4541 11.3223ZM45.5576 13.2568L48.4014 5.04688H49.8369L46.1455 15H44.9834L41.2988 5.04688H42.7275L45.5576 13.2568ZM52.585 15H51.2725V5.04688H52.585V15ZM62.3125 11.8418C62.1895 12.8945 61.7998 13.708 61.1436 14.2822C60.4919 14.8519 59.6237 15.1367 58.5391 15.1367C57.3633 15.1367 56.4199 14.7152 55.709 13.8721C55.0026 13.029 54.6494 11.901 54.6494 10.4883V9.53125C54.6494 8.60612 54.8135 7.79264 55.1416 7.09082C55.4743 6.389 55.9437 5.85124 56.5498 5.47754C57.1559 5.09928 57.8577 4.91016 58.6553 4.91016C59.7126 4.91016 60.5602 5.20638 61.1982 5.79883C61.8363 6.38672 62.2077 7.20247 62.3125 8.24609H60.9932C60.8792 7.45312 60.6309 6.87891 60.248 6.52344C59.8698 6.16797 59.3389 5.99023 58.6553 5.99023C57.8167 5.99023 57.1582 6.30013 56.6797 6.91992C56.2057 7.53971 55.9688 8.42155 55.9688 9.56543V10.5293C55.9688 11.6094 56.1943 12.4684 56.6455 13.1064C57.0967 13.7445 57.7279 14.0635 58.5391 14.0635C59.2682 14.0635 59.8265 13.8994 60.2139 13.5713C60.6058 13.2386 60.8656 12.6621 60.9932 11.8418H62.3125ZM71.7666 10.3447C71.7666 11.32 71.6025 12.1722 71.2744 12.9014C70.9463 13.626 70.4814 14.1797 69.8799 14.5625C69.2783 14.9453 68.5765 15.1367 67.7744 15.1367C66.9906 15.1367 66.2956 14.9453 65.6895 14.5625C65.0833 14.1751 64.6117 13.626 64.2744 12.915C63.9417 12.1995 63.7708 11.3724 63.7617 10.4336V9.71582C63.7617 8.75879 63.9281 7.91341 64.2607 7.17969C64.5934 6.44596 65.0628 5.88542 65.6689 5.49805C66.2796 5.10612 66.9769 4.91016 67.7607 4.91016C68.5583 4.91016 69.2601 5.10384 69.8662 5.49121C70.4769 5.87402 70.9463 6.43229 71.2744 7.16602C71.6025 7.89518 71.7666 8.74512 71.7666 9.71582V10.3447ZM70.4609 9.70215C70.4609 8.52181 70.224 7.61719 69.75 6.98828C69.276 6.35482 68.613 6.03809 67.7607 6.03809C66.9313 6.03809 66.2773 6.35482 65.7988 6.98828C65.3249 7.61719 65.0811 8.49219 65.0674 9.61328V10.3447C65.0674 11.4886 65.3066 12.3887 65.7852 13.0449C66.2682 13.6966 66.9313 14.0225 67.7744 14.0225C68.6221 14.0225 69.2783 13.7148 69.7432 13.0996C70.208 12.4798 70.4473 11.5934 70.4609 10.4404V9.70215ZM81.3848 15H80.0654L75.0547 7.33008V15H73.7354V5.04688H75.0547L80.0791 12.751V5.04688H81.3848V15Z" fill="black"/>
</svg>
